<svg width="157" height="24" viewBox="0 0 157 24" fill="none" xmlns="http://www.w3.org/2000/svg">
<g clip-path="url(#clip0_438_242)">
<path d="M22.7691 0H2.2309C1.2749 0 0.5 0.774902 0.5 1.7309V22.2691C0.5 23.2251 1.2749 24 2.2309 24H13.3203V14.7188H10.2031V11.0859H13.3203V8.41241C13.3203 5.31207 15.2131 3.62457 17.9787 3.62457C19.3033 3.62457 20.4417 3.72327 20.7734 3.7674V7.00781H18.8664C17.3616 7.00781 17.0703 7.72284 17.0703 8.77222V11.0859H20.668L20.1992 14.7188H17.0703V24H22.7691C23.7251 24 24.5 23.2251 24.5 22.2691V1.7309C24.5 0.774902 23.7251 0 22.7691 0V0Z" fill="#808080"/>
</g>
<g clip-path="url(#clip1_438_242)">
<path d="M67.5949 0.906398C66.9907 0.302041 66.2667 0 65.4232 0H47.5792C46.7354 0 46.0116 0.302151 45.4073 0.906398C44.803 1.51048 44.501 2.23442 44.501 3.07804V20.9218C44.501 21.7653 44.803 22.4894 45.4073 23.0935C46.0116 23.6977 46.7356 24 47.5792 24H65.4229C66.2663 24 66.9905 23.6977 67.5947 23.0935C68.1991 22.4894 68.5009 21.7653 68.5009 20.9218V3.07804C68.5008 2.23425 68.1991 1.5107 67.5949 0.906398ZM53.1184 8.64832C54.0611 7.737 55.1939 7.28112 56.5168 7.28112C57.85 7.28112 58.988 7.737 59.9308 8.64832C60.8737 9.55981 61.3448 10.6615 61.3448 11.9531C61.3448 13.2446 60.8737 14.3463 59.9308 15.2575C58.988 16.1692 57.8504 16.625 56.5168 16.625C55.194 16.625 54.0612 16.1688 53.1184 15.2575C52.1756 14.3462 51.7042 13.2446 51.7042 11.9531C51.7042 10.6615 52.1756 9.55986 53.1184 8.64832ZM65.7825 20.2814C65.7825 20.5521 65.6885 20.7785 65.5012 20.9609C65.3133 21.1432 65.0897 21.2343 64.829 21.2343H48.1262C47.8554 21.2343 47.6287 21.1432 47.4465 20.9609C47.2641 20.7789 47.173 20.5521 47.173 20.2814V10.1561H49.3761C49.1678 10.8124 49.0637 11.4948 49.0637 12.203C49.0637 14.2034 49.7927 15.9089 51.2511 17.3206C52.7096 18.7318 54.4647 19.4377 56.5168 19.4377C57.871 19.4377 59.1209 19.1147 60.2671 18.4689C61.4129 17.8227 62.3186 16.9453 62.9858 15.8359C63.6525 14.7264 63.9858 13.5154 63.9858 12.203C63.9858 11.4949 63.8813 10.8126 63.6731 10.1561H65.7827V20.2815H65.7825V20.2814ZM65.7825 6.32793C65.7825 6.63002 65.6784 6.88527 65.4697 7.09357C65.2615 7.30202 65.0064 7.40611 64.7041 7.40611H61.9855C61.6836 7.40611 61.4281 7.30197 61.2199 7.09357C61.0116 6.88527 60.9075 6.63002 60.9075 6.32793V3.75004C60.9075 3.45834 61.0116 3.20578 61.2199 2.99217C61.4282 2.77868 61.6836 2.6718 61.9855 2.6718H64.7041C65.0064 2.6718 65.2615 2.77863 65.4697 2.99217C65.6783 3.20578 65.7825 3.45834 65.7825 3.75004V6.32793Z" fill="#808080"/>
</g>
<g clip-path="url(#clip2_438_242)">
<path d="M112.5 4.5585C111.608 4.95 110.656 5.2095 109.665 5.3355C110.685 4.7265 111.464 3.7695 111.83 2.616C110.878 3.183 109.828 3.5835 108.709 3.807C107.806 2.8455 106.519 2.25 105.115 2.25C102.391 2.25 100.198 4.461 100.198 7.1715C100.198 7.5615 100.231 7.9365 100.312 8.2935C96.222 8.094 92.6025 6.1335 90.171 3.147C89.7465 3.8835 89.4975 4.7265 89.4975 5.634C89.4975 7.338 90.375 8.8485 91.683 9.723C90.8925 9.708 90.117 9.4785 89.46 9.117C89.46 9.132 89.46 9.1515 89.46 9.171C89.46 11.562 91.1655 13.548 93.402 14.0055C93.0015 14.115 92.565 14.1675 92.112 14.1675C91.797 14.1675 91.479 14.1495 91.1805 14.0835C91.818 16.032 93.627 17.4645 95.778 17.511C94.104 18.8205 91.9785 19.6095 89.6775 19.6095C89.274 19.6095 88.887 19.5915 88.5 19.542C90.6795 20.9475 93.2625 21.75 96.048 21.75C105.102 21.75 110.052 14.25 110.052 7.749C110.052 7.5315 110.045 7.3215 110.034 7.113C111.01 6.42 111.831 5.5545 112.5 4.5585Z" fill="#808080"/>
</g>
<g clip-path="url(#clip3_438_242)">
<path d="M155.48 5.34C154.829 4.182 154.123 3.969 152.684 3.888C151.247 3.7905 147.633 3.75 144.503 3.75C141.366 3.75 137.752 3.7905 136.316 3.8865C134.88 3.969 134.173 4.1805 133.515 5.34C132.845 6.4965 132.5 8.4885 132.5 11.9955C132.5 11.9985 132.5 12 132.5 12C132.5 12.003 132.5 12.0045 132.5 12.0045V12.0075C132.5 15.4995 132.845 17.5065 133.515 18.651C134.173 19.809 134.879 20.019 136.314 20.1165C137.752 20.2005 141.366 20.25 144.503 20.25C147.633 20.25 151.247 20.2005 152.685 20.118C154.124 20.0205 154.83 19.8105 155.482 18.6525C156.158 17.508 156.5 15.501 156.5 12.009C156.5 12.009 156.5 12.0045 156.5 12.0015C156.5 12.0015 156.5 11.9985 156.5 11.997C156.5 8.4885 156.158 6.4965 155.48 5.34ZM141.5 16.5V7.5L149 12L141.5 16.5Z" fill="#808080"/>
</g>
<defs>
<clipPath id="clip0_438_242">
<rect width="24" height="24" fill="white" transform="translate(0.5)"/>
</clipPath>
<clipPath id="clip1_438_242">
<rect width="24" height="24" fill="white" transform="translate(44.5)"/>
</clipPath>
<clipPath id="clip2_438_242">
<rect width="24" height="24" fill="white" transform="translate(88.5)"/>
</clipPath>
<clipPath id="clip3_438_242">
<rect width="24" height="24" fill="white" transform="translate(132.5)"/>
</clipPath>
</defs>
</svg>
