<?xml version="1.0" encoding="UTF-8" standalone="no"?>
<svg
   xmlns:dc="http://purl.org/dc/elements/1.1/"
   xmlns:cc="http://creativecommons.org/ns#"
   xmlns:rdf="http://www.w3.org/1999/02/22-rdf-syntax-ns#"
   xmlns:svg="http://www.w3.org/2000/svg"
   xmlns="http://www.w3.org/2000/svg"
   xmlns:sodipodi="http://sodipodi.sourceforge.net/DTD/sodipodi-0.dtd"
   xmlns:inkscape="http://www.inkscape.org/namespaces/inkscape"
   sodipodi:docname="merlina logo.svg"
   inkscape:version="1.0 (4035a4fb49, 2020-05-01)"
   id="svg8"
   version="1.1"
   viewBox="0 0 303.60497 77.894927"
   height="77.894928mm"
   width="303.60498mm">
  <defs
     id="defs2">
    <filter
       id="filter26"
       inkscape:label="Nudge RGB"
       style="color-interpolation-filters:sRGB">
      <feColorMatrix
         result="fbSourceGraphic"
         id="feColorMatrix24"
         values="0.21 0.72 0.072 0 0 0.21 0.72 0.072 0 0 0.21 0.72 0.072 0 0 0 0 0 1 0 " />
      <feColorMatrix
         id="feColorMatrix28"
         values="0 0 0 -1 0 0 0 0 -1 0 0 0 0 -1 0 0 0 0 1 0"
         in="fbSourceGraphic"
         result="fbSourceGraphicAlpha" />
      <feFlood
         in="fbSourceGraphic"
         result="flood"
         flood-color="#fff"
         flood-opacity="1"
         id="feFlood30" />
      <feColorMatrix
         result="colormatrix1"
         values="0 0 0 0 1 0 0 0 0 0 0 0 0 0 0 1 0 0 0 0 "
         in="fbSourceGraphic"
         id="feColorMatrix32" />
      <feOffset
         result="offset1"
         dx="-6"
         dy="-6"
         id="feOffset34" />
      <feBlend
         result="blend1"
         mode="screen"
         id="feBlend36"
         in2="flood" />
      <feColorMatrix
         result="colormatrix2"
         values="0 0 0 0 0 0 0 0 0 1 0 0 0 0 0 0 1 0 0 0 "
         in="fbSourceGraphic"
         id="feColorMatrix38" />
      <feOffset
         result="offset2"
         dx="7"
         dy="6"
         id="feOffset40" />
      <feBlend
         result="blend2"
         mode="screen"
         id="feBlend42"
         in2="blend1" />
      <feOffset
         result="offset3"
         dx="-16"
         dy="1"
         id="feOffset44" />
      <feColorMatrix
         result="colormatrix3"
         values="0 0 0 0 0 0 0 0 0 0 0 0 0 0 1 0 0 1 0 0 "
         in="fbSourceGraphic"
         id="feColorMatrix46" />
      <feBlend
         result="fbSourceGraphic"
         mode="screen"
         id="feBlend48"
         in2="offset3" />
      <feColorMatrix
         id="feColorMatrix50"
         values="0 0 0 -1 0 0 0 0 -1 0 0 0 0 -1 0 0 0 0 1 0"
         in="fbSourceGraphic"
         result="fbSourceGraphicAlpha" />
      <feFlood
         in="fbSourceGraphic"
         result="flood"
         flood-color="#fff"
         flood-opacity="1"
         id="feFlood52" />
      <feColorMatrix
         result="colormatrix1"
         values="0 0 0 0 1 0 0 0 0 0 0 0 0 0 0 1 0 0 0 0 "
         in="fbSourceGraphic"
         id="feColorMatrix54" />
      <feOffset
         result="offset1"
         dx="-100"
         dy="-100"
         id="feOffset56" />
      <feBlend
         result="blend1"
         mode="screen"
         id="feBlend58"
         in2="flood" />
      <feColorMatrix
         result="colormatrix2"
         values="0 0 0 0 0 0 0 0 0 1 0 0 0 0 0 0 1 0 0 0 "
         in="fbSourceGraphic"
         id="feColorMatrix60" />
      <feOffset
         result="offset2"
         dx="-100"
         dy="-100"
         id="feOffset62" />
      <feBlend
         result="blend2"
         mode="screen"
         id="feBlend64"
         in2="blend1" />
      <feOffset
         result="offset3"
         dx="-100"
         dy="-100"
         id="feOffset66" />
      <feColorMatrix
         result="colormatrix3"
         values="0 0 0 0 0 0 0 0 0 0 0 0 0 0 1 0 0 1 0 0 "
         in="fbSourceGraphic"
         id="feColorMatrix68" />
      <feBlend
         result="fbSourceGraphic"
         mode="screen"
         id="feBlend70"
         in2="offset3" />
      <feColorMatrix
         id="feColorMatrix72"
         values="0 0 0 -1 0 0 0 0 -1 0 0 0 0 -1 0 0 0 0 1 0"
         in="fbSourceGraphic"
         result="fbSourceGraphicAlpha" />
      <feFlood
         in="fbSourceGraphic"
         result="flood"
         flood-color="rgb(0,0,0)"
         flood-opacity="1"
         id="feFlood74" />
      <feColorMatrix
         result="colormatrix1"
         values="0 0 0 0 1 0 0 0 0 0 0 0 0 0 0 1 0 0 0 0 "
         in="fbSourceGraphic"
         id="feColorMatrix76" />
      <feOffset
         result="offset1"
         dx="-100"
         dy="-100"
         id="feOffset78" />
      <feBlend
         result="blend1"
         mode="screen"
         id="feBlend80"
         in2="flood" />
      <feColorMatrix
         result="colormatrix2"
         values="0 0 0 0 0 0 0 0 0 1 0 0 0 0 0 0 1 0 0 0 "
         in="fbSourceGraphic"
         id="feColorMatrix82" />
      <feOffset
         result="offset2"
         dx="-100"
         dy="-100"
         id="feOffset84" />
      <feBlend
         result="blend2"
         mode="screen"
         id="feBlend86"
         in2="blend1" />
      <feOffset
         result="offset3"
         dx="-100"
         dy="-100"
         id="feOffset88" />
      <feColorMatrix
         result="colormatrix3"
         values="0 0 0 0 0 0 0 0 0 0 0 0 0 0 1 0 0 1 0 0 "
         in="fbSourceGraphic"
         id="feColorMatrix90" />
      <feBlend
         result="fbSourceGraphic"
         mode="screen"
         id="feBlend92"
         in2="offset3" />
      <feColorMatrix
         id="feColorMatrix94"
         values="0 0 0 -1 0 0 0 0 -1 0 0 0 0 -1 0 0 0 0 1 0"
         in="fbSourceGraphic"
         result="fbSourceGraphicAlpha" />
      <feFlood
         in="fbSourceGraphic"
         result="flood"
         flood-color="rgb(0,0,0)"
         flood-opacity="1"
         id="feFlood96" />
      <feColorMatrix
         result="colormatrix1"
         values="0 0 0 0 1 0 0 0 0 0 0 0 0 0 0 1 0 0 0 0 "
         in="fbSourceGraphic"
         id="feColorMatrix98" />
      <feOffset
         result="offset1"
         dx="-100"
         dy="-100"
         id="feOffset100" />
      <feBlend
         result="blend1"
         mode="screen"
         id="feBlend102"
         in2="flood" />
      <feColorMatrix
         result="colormatrix2"
         values="0 0 0 0 0 0 0 0 0 1 0 0 0 0 0 0 1 0 0 0 "
         in="fbSourceGraphic"
         id="feColorMatrix104" />
      <feOffset
         result="offset2"
         dx="-100"
         dy="-100"
         id="feOffset106" />
      <feBlend
         result="blend2"
         mode="screen"
         id="feBlend108"
         in2="blend1" />
      <feOffset
         result="offset3"
         dx="-100"
         dy="-100"
         id="feOffset110" />
      <feColorMatrix
         result="colormatrix3"
         values="0 0 0 0 0 0 0 0 0 0 0 0 0 0 1 0 0 1 0 0 "
         in="fbSourceGraphic"
         id="feColorMatrix112" />
      <feBlend
         result="fbSourceGraphic"
         mode="screen"
         id="feBlend114"
         in2="offset3" />
      <feColorMatrix
         id="feColorMatrix116"
         values="0 0 0 -1 0 0 0 0 -1 0 0 0 0 -1 0 0 0 0 1 0"
         in="fbSourceGraphic"
         result="fbSourceGraphicAlpha" />
      <feFlood
         in="fbSourceGraphic"
         result="flood"
         flood-color="rgb(0,0,0)"
         flood-opacity="0.854902"
         id="feFlood118" />
      <feColorMatrix
         result="colormatrix1"
         values="0 0 0 0 1 0 0 0 0 0 0 0 0 0 0 1 0 0 0 0 "
         in="fbSourceGraphic"
         id="feColorMatrix120" />
      <feOffset
         result="offset1"
         dx="-100"
         dy="-100"
         id="feOffset122" />
      <feBlend
         result="blend1"
         mode="screen"
         id="feBlend124"
         in2="flood" />
      <feColorMatrix
         result="colormatrix2"
         values="0 0 0 0 0 0 0 0 0 1 0 0 0 0 0 0 1 0 0 0 "
         in="fbSourceGraphic"
         id="feColorMatrix126" />
      <feOffset
         result="offset2"
         dx="-100"
         dy="-100"
         id="feOffset128" />
      <feBlend
         result="blend2"
         mode="screen"
         id="feBlend130"
         in2="blend1" />
      <feOffset
         result="offset3"
         dx="-100"
         dy="-100"
         id="feOffset132" />
      <feColorMatrix
         result="colormatrix3"
         values="0 0 0 0 0 0 0 0 0 0 0 0 0 0 1 0 0 1 0 0 "
         in="fbSourceGraphic"
         id="feColorMatrix134" />
      <feBlend
         result="fbSourceGraphic"
         mode="screen"
         id="feBlend136"
         in2="offset3" />
      <feColorMatrix
         id="feColorMatrix138"
         values="0 0 0 -1 0 0 0 0 -1 0 0 0 0 -1 0 0 0 0 1 0"
         in="fbSourceGraphic"
         result="fbSourceGraphicAlpha" />
      <feFlood
         in="fbSourceGraphic"
         result="flood"
         flood-color="rgb(0,0,0)"
         flood-opacity="1"
         id="feFlood140" />
      <feColorMatrix
         result="colormatrix1"
         values="0 0 0 0 1 0 0 0 0 0 0 0 0 0 0 1 0 0 0 0 "
         in="fbSourceGraphic"
         id="feColorMatrix142" />
      <feOffset
         result="offset1"
         dx="-100"
         dy="-100"
         id="feOffset144" />
      <feBlend
         result="blend1"
         mode="screen"
         id="feBlend146"
         in2="flood" />
      <feColorMatrix
         result="colormatrix2"
         values="0 0 0 0 0 0 0 0 0 1 0 0 0 0 0 0 1 0 0 0 "
         in="fbSourceGraphic"
         id="feColorMatrix148" />
      <feOffset
         result="offset2"
         dx="-100"
         dy="-100"
         id="feOffset150" />
      <feBlend
         result="blend2"
         mode="screen"
         id="feBlend152"
         in2="blend1" />
      <feOffset
         result="offset3"
         dx="-100"
         dy="-100"
         id="feOffset154" />
      <feColorMatrix
         result="colormatrix3"
         values="0 0 0 0 0 0 0 0 0 0 0 0 0 0 1 0 0 1 0 0 "
         in="fbSourceGraphic"
         id="feColorMatrix156" />
      <feBlend
         result="fbSourceGraphic"
         mode="screen"
         id="feBlend158"
         in2="offset3" />
      <feColorMatrix
         id="feColorMatrix160"
         values="0 0 0 -1 0 0 0 0 -1 0 0 0 0 -1 0 0 0 0 1 0"
         in="fbSourceGraphic"
         result="fbSourceGraphicAlpha" />
      <feFlood
         in="fbSourceGraphic"
         result="flood"
         flood-color="rgb(0,0,255)"
         flood-opacity="1"
         id="feFlood162" />
      <feColorMatrix
         result="colormatrix1"
         values="0 0 0 0 1 0 0 0 0 0 0 0 0 0 0 1 0 0 0 0 "
         in="fbSourceGraphic"
         id="feColorMatrix164" />
      <feOffset
         result="offset1"
         dx="-100"
         dy="-100"
         id="feOffset166" />
      <feBlend
         result="blend1"
         mode="screen"
         id="feBlend168"
         in2="flood" />
      <feColorMatrix
         result="colormatrix2"
         values="0 0 0 0 0 0 0 0 0 1 0 0 0 0 0 0 1 0 0 0 "
         in="fbSourceGraphic"
         id="feColorMatrix170" />
      <feOffset
         result="offset2"
         dx="-100"
         dy="-100"
         id="feOffset172" />
      <feBlend
         result="blend2"
         mode="screen"
         id="feBlend174"
         in2="blend1" />
      <feOffset
         result="offset3"
         dx="-100"
         dy="-100"
         id="feOffset176" />
      <feColorMatrix
         result="colormatrix3"
         values="0 0 0 0 0 0 0 0 0 0 0 0 0 0 1 0 0 1 0 0 "
         in="fbSourceGraphic"
         id="feColorMatrix178" />
      <feBlend
         result="fbSourceGraphic"
         mode="screen"
         id="feBlend180"
         in2="offset3" />
      <feColorMatrix
         id="feColorMatrix182"
         values="0 0 0 -1 0 0 0 0 -1 0 0 0 0 -1 0 0 0 0 1 0"
         in="fbSourceGraphic"
         result="fbSourceGraphicAlpha" />
      <feFlood
         in="fbSourceGraphic"
         result="flood"
         flood-color="rgb(0,0,3)"
         flood-opacity="1"
         id="feFlood184" />
      <feColorMatrix
         result="colormatrix1"
         values="0 0 0 0 1 0 0 0 0 0 0 0 0 0 0 1 0 0 0 0 "
         in="fbSourceGraphic"
         id="feColorMatrix186" />
      <feOffset
         result="offset1"
         dx="-100"
         dy="-100"
         id="feOffset188" />
      <feBlend
         result="blend1"
         mode="screen"
         id="feBlend190"
         in2="flood" />
      <feColorMatrix
         result="colormatrix2"
         values="0 0 0 0 0 0 0 0 0 1 0 0 0 0 0 0 1 0 0 0 "
         in="fbSourceGraphic"
         id="feColorMatrix192" />
      <feOffset
         result="offset2"
         dx="-100"
         dy="-100"
         id="feOffset194" />
      <feBlend
         result="blend2"
         mode="screen"
         id="feBlend196"
         in2="blend1" />
      <feOffset
         result="offset3"
         dx="-100"
         dy="-100"
         id="feOffset198" />
      <feColorMatrix
         result="colormatrix3"
         values="0 0 0 0 0 0 0 0 0 0 0 0 0 0 1 0 0 1 0 0 "
         in="fbSourceGraphic"
         id="feColorMatrix200" />
      <feBlend
         result="blend3"
         mode="screen"
         id="feBlend202"
         in2="offset3" />
    </filter>
  </defs>
  <sodipodi:namedview
     inkscape:window-maximized="1"
     inkscape:window-y="-8"
     inkscape:window-x="-8"
     inkscape:window-height="657"
     inkscape:window-width="1280"
     fit-margin-bottom="0"
     fit-margin-right="0.2"
     fit-margin-left="0.2"
     fit-margin-top="0"
     showgrid="false"
     inkscape:document-rotation="0"
     inkscape:current-layer="layer1"
     inkscape:document-units="mm"
     inkscape:cy="230.56808"
     inkscape:cx="469.87602"
     inkscape:zoom="0.49497475"
     inkscape:pageshadow="2"
     inkscape:pageopacity="0.0"
     borderopacity="1.0"
     bordercolor="#666666"
     pagecolor="#ffffff"
     id="base" />
  <metadata
     id="metadata5">
    <rdf:RDF>
      <cc:Work
         rdf:about="">
        <dc:format>image/svg+xml</dc:format>
        <dc:type
           rdf:resource="http://purl.org/dc/dcmitype/StillImage" />
        <dc:title></dc:title>
      </cc:Work>
    </rdf:RDF>
  </metadata>
  <g
     transform="translate(230.90183,-52.436933)"
     id="layer1"
     inkscape:groupmode="layer"
     inkscape:label="Capa 1">
    <path
       id="path266"
       d="m 44.767988,128.17547 c -5.45013,-5.62681 -8.70863,-11.52659 -13.003162,-23.54311 l -1.719792,-4.812147 -5.630272,-0.0776 -5.630272,-0.0776 -0.245608,0.926037 c -0.13508,0.50932 -0.85802,3.48586 -1.606526,6.61453 -1.507328,6.30043 -1.542785,7.16973 -0.373795,9.16446 0.366628,0.62561 1.199584,1.50417 1.851014,1.95237 0.651431,0.44819 1.184418,0.92824 1.184418,1.06677 0,0.15344 -2.895073,0.25187 -7.408333,0.25187 -4.0745835,0 -7.4083335,-0.0779 -7.4083335,-0.17305 0,-0.0952 0.495482,-0.59718 1.101074,-1.11554 1.337442,-1.1448 2.918468,-3.53378 3.674298,-5.55199 1.2822765,-3.42392 11.1135215,-41.089507 13.1258595,-50.287967 0.430057,-1.9658 0.557726,-2.23264 1.086676,-2.27118 0.32965,-0.024 0.694362,0.0854 0.810469,0.24313 0.11611,0.15774 0.607631,1.77509 1.092271,3.5941 0.48464,1.81901 2.399207,7.95073 4.254595,13.62604 1.855388,5.67532 3.696642,11.39032 4.091669,12.7 1.20004,3.97856 2.21649,5.54127 5.12281,7.87599 l 0.58216,0.46766 -0.69498,1.18588 c -1.16904,1.994827 -1.16438,3.723097 0.0198,7.302577 2.50608,7.57555 5.9998,16.49556 8.08604,20.6449 1.02444,2.03754 1.02994,2.06443 0.48088,2.35828 -0.49914,0.26712 -0.78711,0.058 -2.8429,-2.06446 z M 29.066092,97.288783 c 0.04366,-0.0416 -0.577625,-2.26233 -1.380646,-4.93505 -1.56219,-5.19951 -3.586845,-12.99889 -3.591007,-13.83329 -0.0055,-1.11165 -0.335563,-0.0168 -1.319395,4.37716 -1.036243,4.62802 -3.071926,13.20442 -3.333697,14.04497 -0.12446,0.39964 0.131217,0.46146 2.188673,0.52917 2.356342,0.0775 7.289916,-0.0439 7.436072,-0.18296 z M -211.24873,129.36454 c -0.0749,-0.32742 -0.67699,-3.86953 -1.338,-7.87135 -1.34479,-8.14137 -3.26609,-18.89403 -4.08313,-22.851397 -0.67966,-3.29193 -1.5721,-4.95907 -3.38896,-6.33081 -0.77049,-0.58173 -1.36633,-1.12957 -1.32408,-1.21743 0.0422,-0.0879 0.42535,-0.81458 0.85135,-1.61495 1.20092,-2.25627 1.24182,-5.00583 0.15549,-10.45217 -1.96915,-9.87242 -4.18664,-19.28887 -5.05242,-21.45483 -0.65768,-1.64536 -2.33152,-3.33371 -4.01658,-4.05141 -0.69122,-0.29441 -1.25677,-0.65858 -1.25677,-0.80927 0,-0.18294 2.68169,-0.27399 8.06979,-0.27399 7.80304,0 9.13023,0.13671 7.47448,0.76994 -0.9664,0.36959 -1.57571,1.24855 -1.70565,2.46047 -0.0711,0.66371 0.32243,3.77268 0.94761,7.48522 0.58812,3.4925 1.55441,9.50516 2.14731,13.36146 1.35129,8.789 3.13481,19.9872 3.35011,21.03437 0.16161,0.78608 0.16643,0.78224 0.49845,-0.39687 0.1844,-0.65485 2.21919,-8.12602 4.52177,-16.60261 l 4.1865,-15.41198 h 0.73294 c 0.40312,0 0.73294,0.0487 0.73294,0.10823 0,0.0595 1.89644,7.06733 4.2143,15.57289 2.31787,8.50557 4.29732,15.90717 4.39878,16.448 0.10146,0.54083 0.26778,0.88514 0.36959,0.76513 0.10182,-0.12001 0.39083,-1.52789 0.64224,-3.12862 0.25142,-1.60073 1.3452,-8.62542 2.43061,-15.61042 1.08541,-6.985 2.3293,-14.74297 2.76419,-17.23993 1.15058,-6.60617 1.04955,-7.85813 -0.70116,-8.6889 -0.48916,-0.23212 -0.88938,-0.53551 -0.88938,-0.67421 0,-0.15432 3.13115,-0.25217 8.06979,-0.25217 6.56833,0 8.06979,0.066 8.06979,0.35453 0,0.19499 -0.47761,0.51215 -1.06135,0.7048 -1.45583,0.48047 -3.06639,1.92488 -3.83288,3.43748 -1.36302,2.6898 -6.21827,24.47683 -6.21827,27.90336 0,2.02135 0.45987,3.93637 1.2111,5.04338 0.82272,1.21235 0.80667,1.50282 -0.11307,2.04613 -1.18067,0.69743 -2.44171,2.08088 -2.97852,3.26763 -0.74418,1.64521 -3.38248,15.555237 -5.70308,30.068587 l -0.75081,4.69568 -0.97029,7.9e-4 -0.97029,7.9e-4 -0.79719,-3.37343 c -2.18983,-9.26668 -4.72711,-21.73486 -7.14761,-35.123437 -0.42094,-2.32834 -0.82624,-4.05474 -0.90067,-3.83646 -0.0744,0.21828 -0.51859,2.59953 -0.98703,5.29167 -1.38094,7.936397 -3.61039,19.164837 -5.43727,27.384367 -2.3072,10.38062 -2.06977,9.65729 -3.16996,9.65729 -0.72548,0 -0.936,-0.11995 -1.04471,-0.59531 z m 130.079908,-0.26458 c -1.070033,-1.7397 -6.601389,-13.14708 -8.194045,-16.89867 -3.531471,-8.31858 -6.884022,-17.763857 -9.703813,-27.338937 -0.81198,-2.75721 -1.54636,-5.07893 -1.63194,-5.15937 -0.0856,-0.0804 -0.0886,7.11656 -0.007,15.99333 0.16108,17.461457 0.24508,18.558617 1.630264,21.292147 0.395658,0.78079 1.029772,1.56207 1.472068,1.81371 0.427347,0.24313 0.777751,0.53135 0.778671,0.6405 9.13e-4,0.10914 -3.451143,0.19843 -7.671253,0.19843 -4.23261,0 -7.67291,-0.10424 -7.67291,-0.23248 0,-0.12787 0.34155,-0.37396 0.75901,-0.54688 1.92854,-0.79882 3.48704,-3.52197 4.02101,-7.02585 0.19366,-1.27074 0.33392,-5.3066 0.35096,-10.09857 0.0274,-7.695807 0.009,-8.008767 -0.52289,-8.731247 -0.3032,-0.41214 -0.92369,-0.98747 -1.37887,-1.27851 -1.0041,-0.64202 -1.03807,-0.9198 -0.2079,-1.6997 0.89636,-0.84209 1.73035,-2.91877 1.95098,-4.85806 0.10289,-0.90438 0.12754,-4.91854 0.0548,-8.92037 l -0.13229,-7.27604 -0.90677,-1.67241 c -0.49871,-0.91983 -1.42805,-2.13128 -2.06519,-2.69211 -1.10318,-0.97105 -3.04845,-1.85319 -4.08663,-1.85319 -0.26512,0 -0.48204,-0.11906 -0.48204,-0.26458 0,-0.17079 2.95284,-0.26458 8.32934,-0.26458 h 8.329331 l 0.138157,0.59531 c 0.07599,0.32742 0.66624,2.98254 1.311672,5.90025 1.596501,7.21709 3.040671,12.89484 5.041509,19.82068 1.587997,5.49681 4.673348,14.882057 5.178557,15.752507 0.35375,0.6095 0.311298,-36.448587 -0.04365,-38.103657 -0.319802,-1.49119 -1.601653,-3.0384 -2.757668,-3.32854 -1.845714,-0.46325 -0.0075,-0.63655 6.751921,-0.63655 4.074583,0 7.408332,0.0571 7.408332,0.12691 0,0.0698 -0.452784,0.35791 -1.006186,0.64023 -1.421328,0.72511 -2.598356,2.01736 -3.131531,3.43809 -0.392158,1.04498 -0.472345,2.5146 -0.562454,10.30845 -0.117504,10.16355 -0.0518,10.6722 1.68406,13.03843 0.494694,0.67434 0.899445,1.28766 0.899445,1.36293 0,0.0753 -0.423375,0.38665 -0.940832,0.69196 -0.620765,0.36626 -1.126487,0.97481 -1.486564,1.78882 -0.540091,1.22097 -0.5437,1.41513 -0.349258,18.785607 0.176028,15.7252 0.153999,17.5519 -0.211648,17.5519 -0.224467,0 -0.646125,-0.38695 -0.937016,-0.85989 z m -83.519468,-7.75059 c -1.41858,-1.23006 -3.13554,-1.70827 -6.13344,-1.70827 -1.6318,0 -2.46552,-0.0994 -2.46552,-0.29401 0,-0.1617 0.46025,-0.84631 1.02278,-1.52135 2.34741,-2.81692 2.69356,-4.8049 2.77057,-15.91172 0.0491,-7.079437 0.006,-7.274357 -2.10384,-9.530007 l -1.19096,-1.27322 0.91894,-1.20387 c 0.50541,-0.66213 1.19691,-1.89258 1.53666,-2.73432 0.60183,-1.49108 0.61729,-1.7381 0.60061,-9.60025 -0.0147,-6.90472 -0.0846,-8.29899 -0.48454,-9.65729 -0.48463,-1.64599 -1.63139,-3.67468 -2.54408,-4.50065 -1.01446,-0.91808 -0.67096,-1.10098 2.36885,-1.26134 3.25419,-0.17167 4.67934,-0.65268 5.95191,-2.00882 0.4274,-0.45548 0.88538,-0.82815 1.01773,-0.82815 0.13234,0 0.7558,0.45348 1.38547,1.00773 1.57287,1.3845 2.58852,1.65332 6.89302,1.82444 l 3.72334,0.14802 -0.87985,3.73543 c -0.48392,2.05448 -0.9413,4.00331 -1.0164,4.33073 -0.21796,0.95028 -0.52663,0.70979 -1.42115,-1.10723 -0.51625,-1.04867 -1.33589,-2.15005 -2.13413,-2.86773 -1.28072,-1.15148 -4.95132,-3.27737 -5.21078,-3.01791 -0.21133,0.21134 -0.56243,8.02546 -0.76595,17.04704 -0.17586,7.79571 -0.15983,8.26823 0.28053,8.26823 0.58151,0 5.64766,-1.45406 6.92356,-1.98717 1.72075,-0.71897 1.69552,-0.76762 1.61383,3.11165 -0.0853,4.05245 0.18657,3.80334 -3.16451,2.89912 -1.11779,-0.30162 -2.87549,-0.63147 -3.906,-0.73302 l -1.87366,-0.18462 0.15295,6.18608 c 0.26344,10.654627 0.60823,19.860957 0.74911,20.001837 0.16757,0.16757 5.33816,-2.55183 7.0074,-3.68544 0.67401,-0.45773 2.03391,-1.64846 3.022,-2.64607 0.9881,-0.9976 1.88107,-1.76178 1.98438,-1.69817 0.10331,0.0636 0.15296,2.25887 0.11034,4.87836 l -0.0775,4.7627 -4.685,0.0988 c -5.06515,0.10687 -5.69205,0.26422 -7.66444,1.92388 -0.44062,0.37076 -0.903,0.66963 -1.02751,0.66417 -0.12452,-0.005 -0.70264,-0.42289 -1.28473,-0.92763 z m 26.23368,-0.0132 c -1.68623,-1.17806 -3.51523,-1.69502 -5.99698,-1.69502 -1.1135,0 -2.10122,-0.0767 -2.19492,-0.17037 -0.0937,-0.0937 0.35601,-0.63372 0.99937,-1.20004 2.02424,-1.7818 2.50154,-3.15912 2.93156,-8.45945 0.20481,-2.52446 0.44978,-6.79259 0.54439,-9.48472 0.20556,-5.849637 0.029,-6.791947 -1.55489,-8.300127 -0.73617,-0.70097 -0.99881,-1.12448 -0.83241,-1.34228 1.14938,-1.50435 1.97568,-3.05706 2.21115,-4.15498 0.3354,-1.56395 0.35365,-10.14074 0.0314,-14.77761 -0.28159,-4.05224 -0.89555,-5.87893 -2.55971,-7.61574 -0.64076,-0.66874 -1.0745,-1.28952 -0.96385,-1.37952 0.11064,-0.09 1.60939,-0.49815 3.33056,-0.907 2.47422,-0.58774 3.37517,-0.93097 4.30334,-1.63946 l 1.17394,-0.8961 1.01789,0.67361 c 0.88969,0.58877 1.44735,0.70394 4.42791,0.9145 1.87552,0.13249 3.88628,0.37725 4.46836,0.54392 3.20721,0.9183 6.27579,3.4743 7.9142,6.59219 2.00209,3.80998 2.70621,6.95145 3.05623,13.63547 0.25846,4.93577 0.6278,6.52676 1.88509,8.12043 0.42378,0.53717 0.77052,1.09095 0.77052,1.23063 0,0.13968 -0.40933,0.49548 -0.90962,0.79066 -1.26577,0.74682 -1.73363,1.8196 -2.01976,4.63121 -0.89828,8.826767 -3.83849,15.931047 -8.22582,19.875627 -2.21013,1.9871 -5.28749,3.3085 -7.72252,3.31601 -1.34542,0.004 -2.69551,0.67151 -3.56628,1.76283 -0.38887,0.48737 -0.8261,0.87387 -0.97162,0.85889 -0.14552,-0.015 -0.84193,-0.43058 -1.54757,-0.92356 z m 6.17958,-4.08636 c 1.46027,-0.73054 3.55961,-3.15712 4.70596,-5.43953 2.8754,-5.72497 4.32692,-13.955277 4.35845,-24.712877 0.036,-12.29046 -2.35091,-20.64652 -6.74544,-23.61406 -0.93057,-0.6284 -1.34004,-0.72761 -3.00301,-0.72761 h -1.92552 l -0.19171,1.52136 c -0.21358,1.69493 0.0615,43.410707 0.32799,49.736727 l 0.16976,4.02995 0.68784,-0.16489 c 0.37831,-0.0907 1.10537,-0.37378 1.61568,-0.62908 z m 67.880875,4.0958 c -1.380572,-1.21893 -3.132593,-1.70446 -6.150496,-1.70446 -1.601137,0 -2.46552,-0.10098 -2.46552,-0.28804 0,-0.15842 0.538051,-0.90256 1.195671,-1.65364 1.835753,-2.09666 2.176385,-3.31787 2.496894,-8.95171 0.400777,-7.04473 0.357341,-11.756027 -0.123307,-13.374547 -0.252571,-0.8505 -0.836401,-1.83118 -1.5875,-2.66658 -0.653404,-0.72675 -1.188008,-1.45372 -1.188008,-1.6155 0,-0.16178 0.353319,-0.78189 0.785151,-1.37802 2.034969,-2.80919 2.598854,-6.84868 2.137973,-15.31571 -0.376155,-6.91047 -0.675684,-8.05167 -2.771843,-10.56061 -0.519766,-0.62212 -0.945031,-1.22108 -0.945031,-1.33104 0,-0.10995 1.302745,-0.26863 2.894989,-0.35263 3.229567,-0.17038 4.559588,-0.60932 6.193692,-2.04408 l 0.992005,-0.87099 0.846634,0.81925 c 1.598187,1.54648 3.056919,1.97145 7.256582,2.11402 l 3.768352,0.12793 -0.175212,0.69126 c -0.09637,0.3802 -0.550741,2.29193 -1.009719,4.2483 -0.458975,1.95636 -0.955895,3.59749 -1.104265,3.64695 -0.14837,0.0495 -0.478417,-0.45644 -0.733438,-1.1242 -0.715852,-1.87443 -2.97021,-4.11946 -5.412444,-5.39005 -1.148731,-0.59764 -2.144382,-1.08661 -2.212554,-1.08661 -0.269791,0 -0.533387,5.9003 -0.689584,15.43549 l -0.163997,10.01154 0.995593,-0.15948 c 0.547576,-0.0877 2.440906,-0.63407 4.207396,-1.21414 1.766494,-0.58006 3.312774,-1.05466 3.436179,-1.05466 0.123407,0 0.224374,1.62123 0.224374,3.60272 0,4.13922 0.430075,3.76458 -3.208094,2.79457 -1.109607,-0.29584 -2.836013,-0.61873 -3.836458,-0.71752 l -1.81899,-0.17962 0.05987,4.19524 c 0.08481,5.942187 0.604592,21.881227 0.717238,21.993867 0.181885,0.18189 4.537303,-2.12796 6.663657,-3.534 1.182002,-0.78159 2.81283,-2.13798 3.624058,-3.01421 0.811226,-0.87622 1.600303,-1.59313 1.753505,-1.59313 0.323686,0 0.354817,1.93799 0.105593,6.57304 l -0.172951,3.21654 h -4.012361 c -4.685054,0 -6.262807,0.35115 -7.794258,1.73473 -0.55467,0.50111 -1.172652,0.90615 -1.373296,0.90009 -0.200644,-0.006 -0.833382,-0.42472 -1.406083,-0.93037 z m 51.305482,0.66607 c -0.32595,-0.52739 -2.170821,-1.53504 -3.572682,-1.95135 -0.77634,-0.23055 -2.342419,-0.41918 -3.480172,-0.41918 -1.137756,0 -2.068645,-0.11095 -2.068645,-0.24657 0,-0.1356 0.343913,-0.49145 0.764251,-0.79076 0.962904,-0.68564 2.28023,-2.73834 2.645334,-4.12204 0.397766,-1.50749 1.083323,-11.74265 1.086037,-16.214227 0.0026,-4.31598 -0.208126,-5.09454 -1.715317,-6.3369 -1.065932,-0.87863 -1.065639,-0.88326 0.156168,-2.452 1.404085,-1.80277 1.561885,-2.82957 1.556742,-10.12956 -0.0073,-10.39371 -0.472157,-12.90335 -2.840562,-15.33619 -0.587576,-0.60356 -0.866981,-1.08145 -0.713777,-1.22083 0.138462,-0.12597 1.442374,-0.49737 2.897582,-0.82534 2.920516,-0.6582 3.879778,-1.05737 4.952751,-2.06098 l 0.719415,-0.67291 1.052307,0.72924 c 0.955156,0.66193 1.365051,0.74992 4.4399555,0.95311 1.863209,0.12313 3.863904,0.36308 4.445987,0.53322 2.01794804,0.58986 4.231807,1.91385 5.687179,3.4012 3.358896,3.4327 5.028866,8.689 5.429141,17.08842 0.217279,4.55942 0.511048,5.9467 1.602825,7.56907 0.4987925,0.7412 0.9068965,1.44503 0.9068965,1.56406 0,0.11903 -0.404042,0.46613 -0.8978745,0.77133 -1.245391,0.7697 -1.634741,1.79455 -2.008584,5.28703 -0.877546,8.198127 -3.617807,14.790737 -7.87587796,18.948047 -2.34066104,2.28528 -4.12861704,3.02509 -9.02548004,3.73452 -0.57363,0.0831 -1.3359625,0.54601 -2.1441035,1.30193 -1.280014,1.1973 -1.69826,1.38507 -1.999496,0.89766 z m 5.1659995,-4.69497 c 1.416564,-0.66013 3.477869,-2.9259 4.593712,-5.04935 2.77674104,-5.28415 4.25322704,-12.720507 4.57722,-23.053287 0.286951,-9.15143 -0.81971396,-16.39102 -3.249321,-21.25643 -1.204109,-2.41129 -2.110566,-3.55661 -3.526015,-4.45517 -1.009811,-0.64106 -1.44566,-0.74674 -3.079747,-0.74674 h -1.9034675 l -0.191646,5.3667 c -0.105407,2.95168 -0.0582,14.17332 0.104915,24.93698 0.163108,10.763657 0.295783,20.803577 0.294831,22.310947 l -0.0019,2.74066 0.7276035,-0.18138 c 0.400182,-0.0998 1.144323,-0.37557 1.653646,-0.61293 z m -37.5763425,2.45673 c -0.003,-0.0728 -0.008,-2.7186 -0.01103,-5.87965 -0.0051,-5.25842 0.03424,-5.7613 0.461804,-5.91128 0.386897,-0.13572 0.608039,0.21017 1.28506,2.01 1.533429,4.07654 3.217666,5.98524 5.615791,6.36421 5.010296,0.79177 8.618342,-7.24742 6.670778,-14.86335 -0.913757,-3.573227 -3.738557,-8.689717 -5.397812,-9.776897 -0.356624,-0.23367 -1.22142,-0.50654 -1.921766,-0.60637 l -1.273361,-0.18152 -0.155315,-1.58486 c -0.194974,-1.98957 -0.7742,-3.10439 -3.135821,-6.0354 -3.30315,-4.09953 -4.737383,-7.88148 -4.405256,-11.61626 0.250407,-2.81584 1.049149,-4.58447 2.910739,-6.44515 3.578982,-3.57724 8.479681,-4.73643 15.540593,-3.6759 1.474914,0.22153 2.908593,0.33076 3.185953,0.24273 0.27736,-0.088 0.65921,-0.0315 0.848551,0.12565 0.276645,0.2296 -0.0066,1.41609 -1.442313,6.04113 -0.982615,3.16548 -1.917152,5.74352 -2.076749,5.72896 -0.159594,-0.0145 -0.37947,-0.0444 -0.488611,-0.0664 -0.109141,-0.022 -0.198438,-1.31976 -0.198438,-2.88395 0,-2.55966 -0.07198,-2.99055 -0.719952,-4.30993 -1.483058,-3.01977 -4.525589,-3.95057 -7.482123,-2.28901 -2.714312,1.52542 -4.111476,6.90407 -2.77854,10.69652 0.290811,0.82741 0.96475,2.16389 1.49764,2.96995 0.961588,1.45452 8.875714,10.93365 9.689596,11.60569 0.23349,0.1928 0.996898,0.57055 1.696458,0.83945 0.972609,0.37385 1.248014,0.60267 1.170308,0.97237 -0.275704,1.31166 -0.05761,3.75845 0.446662,5.01105 1.361445,3.38181 1.775859,9.007397 0.958559,13.012217 -1.186794,5.81536 -4.871347,9.50475 -10.393423,10.40708 -1.540463,0.25171 -2.542884,0.24702 -4.809482,-0.0225 -2.154008,-0.25616 -3.074585,-0.2669 -3.715803,-0.0434 -0.903139,0.31483 -1.563561,0.38406 -1.572694,0.16485 z m 91.022174,-0.42592 c 0,-0.1615 0.59455,-0.94416 1.32122,-1.73925 1.01659,-1.11232 1.45878,-1.88338 1.91789,-3.34438 0.54438,-1.73231 0.59449,-2.38592 0.57166,-7.45503 -0.0276,-6.1265 -0.52052,-10.293097 -1.44315,-12.198987 -0.73609,-1.52057 -2.55685,-3.13664 -4.1857,-3.71516 -0.7406,-0.26304 -1.39618,-0.60759 -1.45685,-0.76567 -0.0607,-0.15809 0.009,-0.93464 0.15557,-1.72568 0.3538,-1.91387 0.11401,-4.40824 -0.67368,-7.00796 -0.35499,-1.17157 -1.14482,-4.56485 -1.75522,-7.54063 -1.50222,-7.32361 -2.15019,-8.69386 -4.89728,-10.35639 -0.79512,-0.48121 -1.449078,-0.96423 -1.453205,-1.07338 -0.0041,-0.10914 3.266715,-0.19843 7.268535,-0.19843 7.96669,0 7.99902,0.007 6.45869,1.47185 -1.16887,1.11132 -2.06536,2.75019 -2.25292,4.11854 -0.32356,2.36065 1.10728,9.80197 2.71523,14.12107 1.38766,3.72728 5.02608,10.65958 5.3903,10.27011 0.88932,-0.95094 4.46064,-8.32464 5.49066,-11.33654 1.40846,-4.11851 2.62562,-10.92658 2.33394,-13.05464 -0.18756,-1.36835 -1.08405,-3.00722 -2.25292,-4.11854 -1.54033,-1.46448 -1.50799,-1.47185 6.45869,-1.47185 4.00182,0 7.27265,0.0893 7.26853,0.19843 -0.004,0.10915 -0.65808,0.59217 -1.4532,1.07338 -2.74709,1.66253 -3.39506,3.03278 -4.89728,10.35639 -0.61039,2.97578 -1.40023,6.36906 -1.75522,7.54063 -0.78769,2.59972 -1.02748,5.09409 -0.67368,7.00796 0.14621,0.79104 0.21624,1.56759 0.15557,1.72568 -0.0607,0.15808 -0.71625,0.50263 -1.45685,0.76567 -1.62885,0.57852 -3.44961,2.19459 -4.1857,3.71516 -0.92263,1.90589 -1.41552,6.072487 -1.44315,12.198987 -0.0228,5.06911 0.0273,5.72272 0.57166,7.45503 0.45911,1.461 0.90131,2.23206 1.91789,3.34438 0.72668,0.79509 1.32122,1.57775 1.32122,1.73925 0,0.20825 -2.1926,0.29363 -7.54062,0.29363 -5.34803,0 -7.54063,-0.0854 -7.54063,-0.29363 z"
       style="fill:#fff;stroke-width:0.264583" />
  </g>
</svg>
